<?xml version="1.0" encoding="UTF-8"?><svg id="_レイヤー_2" xmlns="http://www.w3.org/2000/svg" viewBox="0 0 283.48 93.27"><defs><style>.cls-1{fill:#fff;}.cls-2{fill:none;}</style></defs><rect class="cls-2" width="283.46" height="93.26"/><rect class="cls-2" width="70.87" height="93.26"/><rect class="cls-2" width="283.46" height="93.26"/><rect class="cls-2" x="95.67" y="20.03" width="187.8" height="56"/><path class="cls-1" d="m46.06,25.22c-16.63,7.59-27.37,13.65-30.92,27.09-2.48,9.36-1.54,23.61-.7,31.38-1.89-1.49-3.6-3.13-5.09-4.84C3.58,72.28.89,64.9.89,55.62v-.02c0-1.91-.05-19.54-.19-29.18C.7,13.84.3,5.68.02,2.54l11.5,5.69c3.79,2.02,4.99,4.4,4.99,8.96v17.51c5.15-7.15,15.14-10.72,24.7-15.1C58.31,11.75,66.03,5.77,69.76,0c-.36,4.56-3.79,16.14-23.69,25.22h-.01Zm8.33,13.1v17.03c0,5.29-.98,9.34-4.15,12.98-3.19,3.65-8.06,6.82-14.46,8.86l-.33.11-.33-.11c-6.4-2.04-11.27-5.21-14.46-8.86-1.4-1.6-2.37-3.28-3.02-5.11-.42,8.36.39,17.75,1.15,23.33,3.97,2.38,8.81,4.5,14.71,6.18l1.97.54,1.97-.54c29.21-8.35,32.58-27.28,32.58-37.09v-30.65c-3.1,6.02-8.28,9.58-15.61,13.33h-.02Zm-6.68-9.49c-17.5,7.99-25.8,13.42-28.73,24.5-.22.85-.42,1.75-.59,2.7,4.44-7.44,12.47-10.75,30.1-19.22,14.93-7.17,21.56-11.83,22.39-27.67-4.01,7.95-11.87,14.55-23.17,19.7h0Zm69.87,14.92l-.19-3.74c-.11-2.8-.71-4.97-3.77-5.98,2.92-1.16,4.3-3.51,4.3-6.31,0-4.3-2.95-7.7-9.64-7.7h-12.59v26.6h6.31v-9.79h5.16c2.39,0,3.81.67,3.92,3.89l.11,2.99c.04,1.23.22,2.17.64,2.91h6.5c-.45-.71-.71-1.76-.75-2.88h0Zm-15.58-11.66v-7.02h5.46c2.54,0,3.96,1.2,3.96,3.48s-1.42,3.55-3.85,3.55h-5.57Zm36.36-12.07l-2.24,3.81c-1.23,2.13-2.5,4.45-3.7,6.65-1.23-2.17-2.54-4.37-3.81-6.61l-2.32-3.85h-7.14l9.98,16.25v10.35h6.31v-10.35l9.86-16.25h-6.95.01Zm21.27,27.2c6.95,0,11.58-3.66,11.58-10.72v-16.48h-6.31v16.55c0,3.48-2.02,5.19-5.27,5.19s-5.23-1.72-5.23-5.19v-16.55h-6.31v16.48c0,7.06,4.86,10.72,11.55,10.72h-.01Zm41.4-27.2h-7.7l-11.02,11.51v-11.51h-6.31v26.6h6.31v-7.96l3.59-3.55,7.66,11.51h7.47l-10.69-15.73s10.69-10.87,10.69-10.87Zm13.69,27.2c8.11,0,13.64-5.49,13.64-13.9s-5.53-13.9-13.64-13.9-13.64,5.49-13.64,13.9,5.49,13.9,13.64,13.9h0Zm0-5.49c-4.26,0-7.06-3.14-7.06-8.41s2.8-8.41,7.06-8.41,7.1,3.14,7.1,8.41-2.84,8.41-7.1,8.41Zm42.83-21.71h-7.7l-11.02,11.51v-11.51h-6.31v26.6h6.31v-7.96l3.59-3.55,7.66,11.51h7.47l-10.69-15.73,10.69-10.87Zm14.35,27.2c6.95,0,11.58-3.66,11.58-10.72v-16.48h-6.31v16.55c0,3.48-2.02,5.19-5.27,5.19s-5.23-1.72-5.23-5.19v-16.55h-6.31v16.48c0,7.06,4.86,10.72,11.55,10.72h0Zm-167.21,29.26c5.42,0,9.04-2.86,9.04-8.36v-12.85h-4.93v12.91c0,2.71-1.57,4.05-4.11,4.05s-4.08-1.34-4.08-4.05v-12.91h-4.93v12.85c0,5.51,3.79,8.36,9.01,8.36Zm26.82-21.22v4.34c0,3.21.03,6.24.12,9.65-.96-1.92-2.24-4.08-3.23-5.71l-5.07-8.28h-5.3v20.75h4.69v-4.34c0-3.18-.03-6.21-.12-9.59.96,1.89,2.07,3.73,3.23,5.65l5.07,8.28h5.3v-20.75h-4.69Zm9.42,20.75h4.93v-20.75h-4.93v20.75Zm23.44-20.75l-3,9.12c-.7,2.19-1.43,4.69-2.07,7.29-.67-2.59-1.43-5.1-2.13-7.29l-3.03-9.12h-5.28l7.49,20.75h5.83l7.26-20.75h-5.07,0Zm23.93,4.4v-4.4h-15.86v20.75h15.83v-4.4h-10.9v-4.05h9.94v-4.14h-9.94v-3.76s10.93,0,10.93,0Zm21.76,14.11l-.15-2.91c-.09-2.19-.55-3.88-2.94-4.66,2.27-.9,3.35-2.74,3.35-4.93,0-3.35-2.3-6-7.52-6h-9.82v20.75h4.93v-7.64h4.02c1.87,0,2.97.53,3.06,3.03l.09,2.33c.03.96.17,1.69.49,2.27h5.07c-.35-.55-.55-1.37-.58-2.24Zm-12.15-9.09v-5.48h4.26c1.98,0,3.09.93,3.09,2.71s-1.11,2.77-3,2.77h-4.35Zm24.75,11.8c5.3,0,8.8-2.19,8.8-6.56,0-3.53-2.19-5.42-7.17-6.32l-1.75-.32c-2.57-.5-3.53-1.08-3.53-2.54,0-1.31,1.02-2.1,3.18-2.1,2.77,0,3.79.99,3.91,2.91h4.66c-.17-4.26-3-6.76-8.66-6.76s-8.1,2.62-8.1,6.15c0,3.76,2.57,5.74,6.94,6.5l1.69.32c2.86.52,3.73,1.08,3.73,2.48,0,1.55-1.19,2.39-3.53,2.39-2.57,0-4.43-.61-4.49-3.44h-4.78c.03,4.49,3.18,7.29,9.09,7.29h.01Zm12.8-.47h4.93v-20.75h-4.93v20.75Zm25.85-20.75h-17.69v4.4h6.35v16.35h4.96v-16.35h6.38v-4.4Zm16.76,0l-1.75,2.97c-.96,1.66-1.95,3.47-2.89,5.19-.96-1.69-1.98-3.41-2.97-5.16l-1.81-3h-5.57l7.78,12.68v8.07h4.93v-8.07l7.69-12.68h-5.42.01Z"/></svg>