<?xml version="1.0" encoding="utf-8"?>
<!-- Generator: Adobe Illustrator 23.0.1, SVG Export Plug-In . SVG Version: 6.00 Build 0)  -->
<svg version="1.1" id="レイヤー_1" xmlns="http://www.w3.org/2000/svg" xmlns:xlink="http://www.w3.org/1999/xlink" x="0px"
	 y="0px" viewBox="0 0 1443.9 382.2" style="enable-background:new 0 0 1443.9 382.2;" xml:space="preserve">
<style type="text/css">
	.st0{fill:#221815;}
	.st1{fill:#E60012;}
	.st2{fill:#009944;}
</style>
<path class="st0" d="M548.8,141.9c-1.2,2.7-0.7,3.5,1.5,4.6c2.3,1.1,13.7,5.4,16.1,7.6c2.3,2.4,6.1-0.3,3.9-3.4
	c-2.4-3-7-11.4-9.7-12.2c-2.6-0.7-7.6-1.3-8.8,0C550.7,139.5,548.8,141.9,548.8,141.9"/>
<path class="st0" d="M544.6,176.8c-1.5,1.5-3.5,4.5-1.2,6.1c2.4,1.5,7.7,1.5,10.8,2.6s11.5,2.3,13.8,0c2.4-2.2-2.3-5.3-6.5-7.9
	c-4.2-2.8-7.3-5-11.1-3.9C546.5,174.7,546.9,174.3,544.6,176.8"/>
<path class="st0" d="M573.7,194.7c-1.7-0.9-6.6,4.7-12,13c-5.3,8.4-10.3,8.4-13.6,13.5c-3.5,4.9-1.6,5.4,0.7,8
	c2.3,2.7,2.3,3.1,5,3.1s3-1.1,4.9-3.5c2-2.2,5.8-10,6.3-13c0.4-3.1,4.9-6.1,6-10.8C571.8,201.8,576.7,196.2,573.7,194.7"/>
<path class="st0" d="M574.4,150.2c0.2,4.1,3.5,4.7,5.6,4.7c2.4,0,14.3-8.8,38.4-8.4c24.2,0.4,40.2,5.4,43.7,6.1
	c3.5,0.7,6.2-0.7,9.2-4.2c3-3.4,5-6.5,3.8-7.7c-1.1-1.1-28.7-2-53.6-1.5c-18.7,0.4-44.5,3.8-44.5,3.8S574,144.5,574.4,150.2"/>
<path class="st0" d="M612.7,145.6c-6.8,0.4,0.3,33.2-12.3,36.4c-5.3,1.4-5.3,4.3-5,7.3c0.4,3.1,1.6,5.4,5.4,5.4
	c3.9,0,11.5-8.3,13.8-12.7C617,177.9,620.8,145.2,612.7,145.6"/>
<path class="st0" d="M629.7,145.6c-5.9-0.3-6,22.5-5.1,31.9c1.1,10.6,10.3,12.2,15.7,11.4c5.3-0.8,9.3-8.9,8.9-9.6
	c-2.1-2.9-12.9,2.3-15-2.2c-3.1-6.7,1.2-20.7,0.3-24.2C633.9,149.5,634.3,145.8,629.7,145.6"/>
<path class="st0" d="M589.4,162.1c-8.3,1.1-2.7,15.4-3,32.3c-0.5,16.9-7,33.3,2.6,36.3c9.5,3.1,6.5-2.6,14.2-2.6
	c7.6,0,29.5-0.9,34.5-0.9c5.1,0,8,3.5,12.3,3.5s9.9-5.6,9.9-14.2c0-8.3,0.8-42.2,3-47.5c2.3-5.4-5.3-8.9-12.2-9.6
	c-6.9-0.7-55-1.4-61.7,2.6c-0.4,0.3,5.9,8.7,6.3,8.4c1.9-1.8,47.3-6.6,53.2-1.1c5.5,5.3,1.9,39.4,1.9,46.7c0,1.9-1.1,3.1-3.8,3.1
	c-3.4,0-41-1-47.3,0.8c-2.5,0.8-4.9-0.8-4.9-3.5c0-3.9,1.5-47.5,0.9-51.3C594.3,161.4,593.1,161.7,589.4,162.1"/>
<path class="st0" d="M603.2,203.9c0,4.7,2.7,4.3,8,3.8c5.4-0.4,15.7-0.7,19.5,0c3.8,0.9,8.1-1.1,8.1-3.8c0-2.6,0-6.1-7.6-6.1
	c-7.7,0-19.2,0.7-23.4,1.6C603.6,200.2,603.2,200.9,603.2,203.9"/>
<path class="st0" d="M702.8,148.7c-2.4,3-2.8,4.7,0.8,7.3c4.2,2.9,7.9,3,12.9,6.4c3,2,2.7,1.1,4.6-0.8c2-2,0-3.9-1.5-5.3
	c-1.5-1.5-3.7-6.2-7.3-8.1C708.9,146.5,704.4,146.8,702.8,148.7"/>
<path class="st0" d="M694.3,179c-3.2,3.1-1.1,8.1,8.4,9.5c3.6,0.5,9.1,2.8,8.8,5c-0.1,2.6-12.2,10.7-10.3,20.8
	c1,4.9,6.1,6.9,7.1,6.5c3.7-1.9,12.1-2.2,22.3-2.1c27.7,0.7,50.7,15.5,56,17.7c13,5.4,39.4-14.3,36.3-16.9
	c-2.7-2.2-18.7,7.3-58.8-3.7c-26.4-7.2-54.8-3.4-54.5-6.5c0.5-6.3,8.8-13.5,8.8-17c0-2.3-3-8.3-10.5-12.6c-1-0.6,0.6-3.8-8.6-4.2
	C696.2,175.4,696.2,177.1,694.3,179"/>
<path class="st0" d="M767.4,131.3c-6.6-0.1-4.2,8.2-4.6,36.3c0,1.2-17.9,1.5-25.6,1.8c-4.2,0-5.3,3.2-7.4,5.1
	c-2,1.7,0.5,4.6,3.7,4.6c3.3,0,21.1-3.9,33.1-3.9s25,3.9,28.3,3.7c3.6-0.2,11.5-7.8,9.4-9.6c-1.9-1.8-32.7-1.8-32.7-1.8
	C772.3,142.5,774.5,131.3,767.4,131.3"/>
<path class="st0" d="M742.5,144.7c-2.4,1.1-2.3,5.5-5.9,9.4c-6.8,7.1-9.6,7.5-7.5,9.8c1.6,1.8,13-4.6,15.8-7.3c0,0,1.4,2.1,3.3,2.3
	c2.9,0.2,7.1-3.5,19.5-3.5c7.1,0,17.3,1,20.5,1c3.3,0,5.5-2.5,5.5-5c0-5.7-13.9-5.3-27.5-4.6c-4.3,0.2-13.4,0.9-17.1,1.3
	C749.2,148.1,744.6,143.7,742.5,144.7"/>
<path class="st0" d="M753.2,212.2c-2.7,0-5.8-1.4-5.8-5.3c0.2-9.8-2.8-18.5,0.7-20.7c3.4-2.3,7-1.9,17.2-2.9
	c10-0.9,20.1,0.7,22.7,4.9c2.5,4.2-2.1,9.4-2.1,15c0,5.5-5.3,7.5-10.9,7.4c-5.5-0.2-19,0.6-21.9,0.1c-2.8-0.3-3.5-7.3-1.2-7.5
	c4.6-0.9,18.2-1.3,23-1.5c1.3,0,2.1-2.9,2.3-7.5c0-1.6-2.5-3.5-4.1-3.5c-3.3,0-12.1,0.2-15.9,0.6c-1.2,0.1-2.3,0.7-2.3,2.5
	c-0.3,5.7,1,15.7,2.1,16.9C758,212.2,754.5,212.2,753.2,212.2"/>
<path class="st0" d="M269.4,140.3c0,3.4,3.9,3,7.4,3s21.6-1.4,22.2-1.1c1.9,0.5,0.8,5,0.8,5s-39.2,0.3-41.9,0.8
	c-1.1,0.1-5.3,5.7-5.6,12.9c-0.4,7.2,0.4,10.8,4.6,10.8c5,0,3.4-13.5,5.8-15c4.2-2.7,36.8-1.9,36.8-1.9s0.1,4.3,0.1,9
	c0,5.6,0.1,12,3.9,12c3.9,0,4.5-6.2,4.5-12c0-5-0.2-9.8-0.2-9.8s37.9-1.9,41.3,0.8c3.5,2.6-1.5,16.2,7.8,15.7
	c6.5-0.4,4.9-6.9,4.2-9.6c-0.8-2.6-1.2-9.5-5-12.2c-3.9-2.7-43.7-1.5-47.5-1.5c-0.3,0-0.4-4.6,2.3-4.6s22.2-0.4,24.9,0
	c2.6,0.3,4.6-2.3,4.2-3.9c-0.4-1.7-0.2-4.1-6.4-4.1s-54.6-0.5-59.1,1.1C269.9,137.1,269.4,137.1,269.4,140.3"/>
<path class="st0" d="M272.5,159.1c-3.4,0.4-4.2,0.6-4.2,3.8c0,1.7,0,2.7,4.2,2.7c4.3,0,14.1-1.2,18-0.7c2.7,0,5.1-0.6,5.1-2.9
	c0-2.3-2-2.6-6.6-3.4C284.4,157.9,275.5,158.7,272.5,159.1"/>
<path class="st0" d="M319.2,157.9c-3.4,0.5-4.1,1.2-4.1,3.2c0,1.8,1.3,3.6,4.4,3.2c5.4-0.2,13.1-0.2,17.2,0c2.6,0.4,4.9-0.9,4.9-3.4
	c0-1.2-0.4-3.1-4-3.2C332.5,157.5,322.3,157.5,319.2,157.9"/>
<path class="st0" d="M271.9,169c-3.5,0.5-4.2,0.6-4.2,3.9c0,1.7,0,2.6,4.2,2.6s14.1-1,18-0.8c2.6,0.3,4.9-1.1,4.9-2.6
	c0-1.7-1-2.8-5.1-3.3C285.1,168.4,275,168.7,271.9,169"/>
<path class="st0" d="M318.9,167.6c-3.5,0.5-4.1,1.2-4.1,3.3c0,1.7,1.1,3.5,4.4,3.3c5.3-0.4,12.1-0.5,16.1-0.3c2.7,0.3,6-1.8,6-4
	c0-1.2-1.7-2.7-5.3-2.9C330.9,166.9,321.9,167.3,318.9,167.6"/>
<path class="st0" d="M264.4,180c-3.1,0.7-2.1,3.4-1.3,5.9c0.8,2.4,1.7,3.3,4.6,2.9c4.9-0.8,3.4-4.2,11.8-4.9c3.8-0.5,6.4,0,8.1,2.1
	c2.3,2.9-2,9.5-0.2,11.3c0.2,0.2-3.8,0.2-3.8,0.2s0.2-5.8-2.3-8.1c-2.5-2.2-4.4-4.1-7.1-1.3c-2.8,2.9-1.7,3.4-1,4.6
	c0.8,1.2,3.8,5.4,3.8,5.4s-20.2,1.1-21.9,1.9c-1.8,0.9-5.6,3.6-3.6,7.3c2.2,3.6,2.8,3,5.3,3c2.5,0,8-4.4,14.4-5.1
	c6.3-0.7,6.8-0.6,6.8-0.6l-0.4,4.2c0,0-14.3,9-28.5,12.3c-7.4,1.7-7.2,5.8-6.1,8.6c1.1,2.8,1.8,4.2,4.6,3.5
	c12.3-3.5,28.9-15.1,28.9-15.1s0,16.3,0.2,20c0.2,3.6,1.8,4.1,3.5,4.4c1.7,0.3,5.3-2.2,5.3-8.3s-0.7-20.8-0.7-20.8s4.7-4.5,3.8-5.6
	c-0.7-1.1-4.3-1.9-4.3-1.9l-0.3-2.4c0,0,4.6,0,7.4,2.2c2.6,2.1,0,7.3-0.7,9c-0.5,1.6,0.3,3.9,1.5,4.1c1.3,0.5,3.3-0.3,4.1-1.8
	c1-1.5,5.9-11,5.9-13.1c-0.2-4-10.9-6.1-10.9-6.1s0.2-1.2,2.1-3.2c0.9-1.1,5.8-10.4,3.4-13.1c-3-3.5-8.2-5.2-18.2-3.8
	C265.7,179.4,270.9,178.3,264.4,180"/>
<path class="st0" d="M323.6,196.2c-4.8,2.8-13.2,6.4-20.4,6.6c-3.3,0-1.9,3.4-0.4,6.1c1.5,2.7,2.4,2.3,5.2,2.1
	c6.2-0.4,19.1-8,23.5-12.3c0.2-0.1,15.8,10.1,22.5,13.6c4,2.2,7.5,0.6,10.4-1.3c2.9-1.9,5.8-5.5,4.1-6c-5.4-1.3-27-8.7-31-10.5
	c-2.1-0.9,2.6-4.8,1.5-8.6c0-0.2,5.3-0.4,8.1,0c2.5,0.3,4.8-1.9,4.8-3.4s-1-4-6.3-4.1c-5.4-0.3-20.6,0.9-25.6,0.9
	c-2.7,0,2-1.7-2.1-3.3c-1.7-0.6-4.7,4.4-8.2,7.7c-3.4,3.3-5,1.5-6.1,2.8c-1.1,1.2-1,3.4-0.4,4.8c0.6,1.2,2.5,3,3.6,2.6
	c3-1.1,10.3-7.9,10.3-7.9s14.3,0,16.4-0.4c1.7-0.2,0.1,3.4-4,7c0,0-6.1-1.6-9.4-3.3c-1.1-0.6-3.5-0.8-4.5,0.1c-0.9,1-1.1,2.8,1,3.7
	C318.5,193.9,323.6,196.2,323.6,196.2"/>
<path class="st0" d="M331.7,204.4c-3.1,0-4.3,3.3-4.3,6.2c-0.2,1.5-10.9-1.1-14,1.7c-4,3.7-3.3,2-2.5,4.4c0.8,2.5,1.7,2,3.8,1.9
	c2.1-0.2,6.9-0.5,6.9-0.5S310,229,304,229.8c-3.2,0.5-3.4,2.8-3.7,4.3c-0.1,1.6,0.6,6.2,1.7,6.1c2.3,0,7,0.1,9-1.4
	c11.9-8.7,19.7-21.5,19.7-21.5s7-1.3,9.9-0.3s3.1,1.5,2.5,3c-2.1,5-6.3,8.3-12.1,11.6c-1.8,1-1.3,5-0.7,6.7c0.6,1.8,3.3,2,5.1,1.4
	c9.3-3.3,14.5-12.8,13.8-18.6c-0.1-1.7,3.5-1.1,2.6-3c-1-1.7-5.2-7.6-8.5-7c-3.2,0.5-10.1,0.1-10.1,0.1S333.9,204.4,331.7,204.4"/>
<path class="st0" d="M435.6,132.6c0.8,2.5-0.7,8.5-2.6,12.1c-0.8,1.3-9.9,1.3-13.9,1.3c-3.8,0.1-6,2.7-6.2,6.7
	c-0.8,9.2,0.2,41.8,0,46.3c-0.2,4.7-1.9,8.1,0.9,10.1c3.9,2.4,7.1,0.6,9.8-0.9c2.4-1.6,17.1-2.8,27.3-2.8c5.7,0,28.9,2.5,31.8,5.8
	c2,2.2-4.3,19.7-8.1,22.8c-2.8,2.1-2,4.8-1.2,4.9c6.3,1.6,19.5-12.4,21.1-25c0.3-2.3,2.3-1.2,2.6-3.8c0-2-4.6-6.3-6.5-7.1
	c-4.3-1.7-18.2-4.2-37.2-4.7c-10.6-0.4-28.9,1.9-31.5,1.9c-1,0-0.4-5.6-0.4-5.6s20-1.6,33.8-2c33.9-0.8,49.4,9.4,54.8,1.2
	c5.2-8.3,1.6-7.4-1.4-7.9c-15.6-2.8-81.9,0-86.8,0.4c-2.1,0.2,0.3-19.9-0.1-28.6c-0.2-3.2,2.4-3.8,4.8-4c2.2-0.2,36.9-2.2,39.3-1.7
	c2.5,0.4,5.2,1.5,4.7,4.9s-1.5,10.3-1.5,11.2c0,1.1,0.4,2.6-2.4,3c-3,0.3-42,1.3-47.8,2.2c-5.7,0.9-1.4-5.3-1.4-5.3s57.5-3.1,58-1.4
	c0.4,1.8,5.6-6.6,0-7.3c-5.5-0.7-50.8,0.1-56.6,0.7c-3.3,0-6.3,22.3-3.8,21.7c5.8-1.1,49.3-3.1,54-2.5c4.6,0.8,8.7-5.3,9.2-9.2
	c0.6-3.7,2.9-12.5,3.1-15.8c0.1-3.5-5.5-9.8-11.4-9.4c-5.7,0.4-27,0-27,0s0-2.4,2.8-6.3c1.8-2.5-3.7-5.4-7.1-6.5
	C437.3,131.4,435.6,131.9,435.6,132.6"/>
<path class="st0" d="M399.4,208.4c-3.6,2.7,0.2,10.7-1.1,21.7c-0.2,2.9,2.9,5.6,4.6,5.6c1.8,0,3.5-3.6,6-4.5
	c2.5-0.7,16.5-1.5,20.5-1.6c14.5-0.5,20.1,2.7,22.8,2.5c2.7-0.3,4.3-0.6,6.5-3c1.9-2-0.1-7.8,4.2-15.5c0.5-0.7-0.8-2.7-4.2-4.3
	c-3.4-1.7-4.6-2.4-5.8-1.4c-1,0.9-0.7,13.8-2.9,14c-2.3,0.1-9.9-0.2-12.8-0.2s-0.4-8.4-0.4-10c0-1.5-0.7-5.1-4-6.7
	c-3.3-1.6-4.1,0.2-5.2,0.6c-1,0.4-1.3,15.5-1.3,15.5c0,2.5-15.4,0.2-18.6,2.2c-3.3,1.8,0.4-7.6,0.2-9.7
	C407.6,211.5,401.5,206.7,399.4,208.4"/>
<path class="st0" d="M854.8,164.1c1.1,2.6,3.8,4,9.1,2.3c4.9-1.3,12.6-3.3,12.6-1.5c0,3.1,0.1,7.1,0,9.2c-0.6,6.8-18.8,18-22.6,22.6
	c-3.9,4.5-1.1,6.9-0.4,8.1c0.8,1,3.1,1.4,8.8-2s13-12.3,13.8-14.6s-0.4,36.9-0.7,43.3c-0.1,4.3,1.5,5,3.8,5c3.5,0,5-4.2,5-8.7
	s0.7-43.4,0.7-46c0-2.7,1.8,6.1,8.5,9.9c5.3,3,6.8,2.2,8.4,0c2.1-3,2.5-5.4-1.5-8.4c-5.7-4.3-15.8-5-15.8-5c0-5.9,0.2-11.5,0-14.2
	c0-0.8,3.9,0.7,8.4,0.7c2.8,0,4.3-3.1,5.1-4.8c0.9-2.2-0.5-4.1-12.7-5.2c-1.1-0.2,0.3-12.1,0-15.9c-0.3-4-1.1-6.1-4.5-6.1
	c-3.2,0-3.9,2.6-3.9,6.4c0,3.9-0.4,15-0.4,15s-11,0.8-16.4,1.4C858,155.7,852.5,159.3,854.8,164.1"/>
<path class="st0" d="M907.1,147.7c1.5,0.6,1.5,0.8,1.6,6c0.2,5.2,1.6,9.2,3.5,9.9c3.2,1.2,13.5-1.9,19.4-1.9c0,0,0.1,8.5,0,8.5
	c-5.7,0-17.7,0.8-22.9,1.1c-5.1,0.5-9.3,3.8-8.8,5.3c0.8,2.1,3.5,3.5,5.3,3.5c4.9,0,20.3-2.2,25.7-2.1c0.2,0,0.3,4.6,0.1,6
	c-0.4,3.8-14.1,13.4-32.5,18.5c-4.6,1.2-5.1,2.1-5.4,3.5c-0.3,2.4-0.8,5.5,0.3,6.5c1.7,1.6,4.5,1.4,7.6,0.7c7.5-1.9,29.8-17,29.8-17
	s-0.5,28-0.5,32.7c0,3.5,1.9,6.9,4,6.9c1.6,0,7.8-4.3,6.5-9.3c-1.9-7.2-1.2-31.5-1.2-31.5c11.2,6,12,11.1,16,14.4
	c4.5,3.6,9.2,6.3,11.5,7.6c3.7,2,18.7-10.3,14.9-11.2c-5.8-1.5-15.2-5.1-24.2-9c-8.3-3.6-10.8-6.7-18.2-9.4
	c-0.1-0.1,0.4-9.9,0.4-9.9c6.5-0.5,22.9,1.5,24.6,1.5c1.6,0,4.5-1.1,4.5-3.7c0-2.9-3.8-5.4-6.8-5.6c-5-0.2-18.4,0.5-22.2,0
	c-0.2,0-0.2-7.4,0-7.4c4,0.3,9.8,0.6,11.9,0.6c1.9,0,6.3-3.5,6.3-5s-3.6-3.9-7.4-3.9H941c-1.8,0,0.9-12.5,0.2-15.2
	c-0.5-1.8-2.5-3.5-5.1-4.9c-3-1.4-4.7,4.4-4.8,8.1c-0.3,3.7-0.3,9.4-0.3,12c0,0.1-7.3,0.1-12.4,0c-1.2,0,1.4-3.8,0.2-5.4
	c-1.2-2.1-6.1-4.8-8.6-4.8C908,143.7,906,147.3,907.1,147.7"/>
<path class="st0" d="M1007.4,169.7c0.9,1.5,4,4.6,6.6,4.3c19-3.3,52.1-3.8,54.6-3.5c1.6,0.2,3.4,14.5,10.4,28.5
	c13.8,28,32.5,42.5,40.1,36.5c1.4-1.2,16.3-8.3,10.7-11c-6.7-3.2-25.2-3.5-39.8-26.6c-9.9-15.6-11.1-22.8-11.1-27
	c0-1,24.8-0.2,32.5,0.5c5.2,0.6,10.5-1.2,10.5-4.1c0-2.1-4.2-4.7-7.4-5.4c-3-0.5-37.5-0.1-37.5-0.1s0.2-13.2,0.2-17.8
	c0-5.2-4.1-9.5-5.6-10.6c-1.4-1.2-4.6,3.4-4.6,7.7c0,2.3,1.3,20.7,1.3,20.7s-44.5-0.4-51.6,0
	C1013.6,161.9,1005.7,167.3,1007.4,169.7"/>
<path class="st0" d="M1090.1,157.5c1.8,1.7,9-6.9,10.9-8c3.3-2,2.4-4.8,1.4-6c-1.2-1.5-0.9-1.1-3.2-2.6c-1.7-1.2-5.2-0.4-5.9,1.7
	C1092.4,144.6,1088.5,155.8,1090.1,157.5"/>
<path class="st0" d="M1012.9,196c0.4,2.9,2.6,4.9,4.9,4.9s1.8-1.6,8-1.8c3.6-0.1,4.7,0,4.7,0l0.4,15.6c0,0-7.7,1.1-15.7,3
	c-7.5,1.7-6.6,6-6.5,7.8c0.3,2.6,3.5,5.7,6.1,5.7c4.4,0,5.4-3.9,21.7-6.8c8-1.5,21.4-3,23.7-5.4c1.7-1.7,4.1-4.7,3.5-5.6
	c-1-1.3-19,0.2-23,0.2c-0.2,0,0.7-14.9,0.7-14.9s9.5-0.1,13.3,0.2c2.4,0.3,7.5-2.7,7.5-4.3c0-1.8-4.6-5.5-11.8-5.8
	c-6.9-0.4-22.5-0.3-29.4,0.3C1014.1,189.4,1012.4,192.2,1012.9,196"/>
<path class="st0" d="M1216.8,134.7c-2.6-2.6-7.3,8.4-28.6,22.3c-15.8,10.3-21.7,10.7-30.2,13c-8.1,2.2-5.2,9.1-5.1,10.8
	c0.3,1.7,4.4,4,7.3,3c4-1.4,24.8-11.8,31.9-17.4c6.7-5.5,19.3-19.4,22.2-19.4c1.9,0,11.8,6.8,17.4,10c9.1,5,26.1,28.7,35.1,28.1
	c2.7-0.2,5.6,0.6,9.4-1.7s7.7-5.8,7.7-8.1c0-1.1-17.6-5.8-30.7-14.4c-9.2-5.9-10.4-8-18.3-12.3c-8.2-4.2-11.9-5.3-13.1-6.5
	C1218.8,139.5,1219.1,137.1,1216.8,134.7"/>
<path class="st0" d="M1188.5,177.8c0,2.1,4.3,5.8,9.4,5.6c4.9-0.2,12.2-1.9,18-1.5c5.7,0.4,14.2,0.2,17.4,0c3.1-0.1,5.7-2.7,5.7-5.2
	s-2.5-5.7-7.7-5.9c-5.1-0.2-30.3-0.2-32.4,0.3C1196.7,171.8,1188.5,174.1,1188.5,177.8"/>
<path class="st0" d="M1168.8,202.9c0.5,2.3,4,2.9,6.6,2.9c2.5,0,23.7-4,29.2-2.9c0.4,0.1-2.6,5.2-6.3,10.4c-3.8,5.2-8.3,10.7-9,11.3
	c0,0.2-3.9,0.2-7.3,0.5c-2.4,0.2-5.7,3.2-5,6.3c0.8,3.1,3.8,7.4,5.4,7.1c2.6-0.5,9.8-3.1,18-4.6c3.1-0.6,9.8-1.5,15.1-2.6
	c9.8-2.2,17.7-4.3,20.1-4.8c1.4-0.2,8,15.6,14.9,11.9c2.7-1.5,2.5-2.1,4.7-4.7c1.5-1.7,0.1-4.6-0.8-5.5c-1.8-1.6-18.1-13-21.7-15.7
	c-3.9-2.9-3.9-2.9-5.1-1.8c-1.4,1.4,0.3,2.7,1.3,4.8c1,2.2,2.1,4.3,2.1,4.3s-21.4,1.3-29.5,2.6c-0.5,0,5.9-4.8,8.2-7.7
	c2.2-2.6,6.3-7.4,8.1-9.4c1.6-1.8-1.6-1.7,0-2.3c3-1.1,28.4-1.4,37.7,1c5.2,1.3,11.2-1,11.2-3.8c0-3-6.5-6.8-15.6-6.8
	c-9.3,0-64.1,0.7-72.7,1.7C1170,196,1168.5,200.4,1168.8,202.9"/>
<path class="st0" d="M1343.3,137.6c-3.7,2.2-5.5,3.6-2.5,6.4c2.8,2.5,7.1,6.7,8.4,9.1c0.4,0.6,2.6,1.5,3.7,0.9
	c1.4-0.7,1.7-1.9,1.6-3.4c-0.4-2.5,0.8-10.3-1.9-12.3C1349.7,136.3,1345.1,136.3,1343.3,137.6"/>
<path class="st0" d="M1317.4,171.3c1,3,7.5,4.2,9.7,3.8c1.1-0.2,1.8-1.5,5.1-2.1c3.9-0.6,19.1-3.3,20.6-2.3
	c2.2,1.5-7.5,12.2-12.5,15.6c-10.2,7.4-18.4,8.7-22.2,9.8c-4.3,1.2-4.7,9.3-1.8,10.4c2.2,0.7,7.5,0.1,8.7-0.2
	c5.5-1.6,15.2-10.4,19.7-13.6c0.3-0.1-0.2,38.1,0.4,43c0.6,4.6,2.7,5.8,4.4,5.8c1.7,0,5-4.5,5.2-7.9c0.2-3.5-1.5-48.4-1.5-48.4
	s12.9-17.7,9.8-20.2c-0.6-0.6-1.6-3.2-4.6-3.4c-9-0.9-28.3-0.4-35.9,1.7C1316.7,165,1316.3,168.4,1317.4,171.3"/>
<path class="st0" d="M1356.1,184.9c-1.5,2.2-0.3,5.4,2.1,6.5c2.9,1.3,9.2,4.5,10.6,6c0.8,0.8,3.4,1.3,4.2,0.6c1.7-1.3,1.5-3.6,0-6.4
	c-1.5-2.7-4.5-6.5-7.3-8.4C1362.7,181,1357.4,182.9,1356.1,184.9"/>
<path class="st0" d="M1372.9,182.3c1.4,2.1,3.6,3.4,5.8,3.4c2.3,0,6.1-2.6,16.1-2.4c0.1,0-0.1,28.9-0.1,31.4
	c0,0.6-20.7,1.4-25.2,2.8c-4.6,1.2-8.8,7.1-5.7,9.5c2.5,1.8,2.8,2.7,5.4,2.5c4-0.4,11.8-5,29.7-5.1c9.8-0.1,26.6,1.9,33.5,5.5
	c1.5,0.8,4.8-1,6.1-2.6c1.9-2.1,6.6-7.7,4.9-9.3c-2.5-2.3-36.3-4.1-39.4-4.1c-0.7,0,1.2-28.5,1.2-30.6c0-0.2,11.7,0.6,17.1,0.4
	c2.9-0.1,4.8-2.5,4.8-4.7c0-2.4-4.1-5.8-6.3-5.8c-2.3,0-12.9-0.1-15.4-0.1c-0.8,0,2.3-17.3,1.7-21.5s-3.4-10-7.2-10.1
	c-3.9-0.2-4.9,5.9-5.1,9.4c-0.1,3.4,0.2,20.4,0.2,22.3c0,0.9-10.4,0.3-14.8,0C1376.7,172.9,1370.6,179,1372.9,182.3"/>
<path class="st1" d="M80.9,105.5c-0.9,0.2-1.9,0.8-1.3,1.4c0.3,0.3,1,0.5,1.3,0.9c1.9,1.4,3.9,2,6.1,2.5c3.2,0.8,6.3,0.3,9.5,0.3
	c2.9-0.1,5.6-1.5,8.5-2.4c0.5-0.2,1-1,1-1.8c0-0.4,0.6-0.7,0.9-1.2c0.1-0.4-0.1-0.8-0.2-1.2c-0.2-0.7-0.9-1-1.5-1.5
	c-0.1-0.1-0.5-0.3-0.8-0.5c-0.6-0.3-1.2-1.2-1.6-1.2c-3.2-0.9-6.4,0.7-9.7,0.9c-1.3,0.1-2.8-0.7-3.7,0.1
	C87,104.3,84,104.7,80.9,105.5"/>
<path class="st1" d="M77.8,124.9c0.6-0.1,0.6-0.9,1.1-1.3c0.5-0.5,1.4-0.8,1.8-1.3c0.2-0.2-0.3-0.9-0.1-1.1c0.7-0.4,1.4-0.8,1.7-1.5
	c1.1-2.6-0.4-6.1,2.3-7.7c1.4-0.8,2.8-0.2,3.9,0.4c0.5,0.3,0.8,0.9,0.9,1.5c0.3,1-0.1,2-0.7,2.6c-0.8,0.8-0.8,1.7-1.4,2.6
	c-0.3,0.4-0.2,0.9-0.2,1.3c1.2-0.4,2.3-0.5,3.4-1.2c0.3-0.2,0.7-0.2,1.1,0c0,0,0,0.2,0,0.4c1.4-0.4,2.7-0.9,4.1-1.1
	c0.7-0.1,1.2-0.5,1.8-0.6c0.2,0,0.2,0.3,0.2,0.4c-3,1.3-6.4,1.5-9.4,3.1c0,0-0.2,0.5,0.1,0.5c2.2,0.2,3.8-1.7,6-1.6
	c0.1,0,0.3,0.3,0.2,0.3c-1.2,0.4-2.5,1.1-3.8,1.4c-0.2,0.1-0.2,0.4,0,0.5c0.7,0.5,1.6,0.2,2.3-0.2c0.3-0.2,0.4-0.7,0.6-0.8
	c0.5-0.2,1,0,1.4,0.3c0.2,0.2,0.7,0,0.8-0.1c0.8-0.6,1.8-1.5,2.7-0.7c0.2,0.2-0.2,0.3-0.3,0.4c-0.7,0.2-1.5,0.2-2.1,0.6
	c-0.3,0.1-0.5,0.5,0,0.5c2.3,0.2,4.3-1.3,6.5-2c0.4-0.1,0.8,0,1.3,0c0,0.2-0.3,0.4-0.4,0.5c-0.7,0.8-1.9,0.3-3,1
	c-0.5,0.4-1.4,0.3-2,0.5c-0.3,0-0.7,0.1-0.9,0.5c1.6-0.4,3.2-1.2,4.8-1.4c1.4-0.2,2.7-0.6,4.1-0.6c0.2,0,0.5,0,0.7,0.2v0.3
	c-1.1,0.1-2.2,0.1-3.2,0.6c-1.5,0.8-3.3,0.3-4.7,1.3c-0.2,0.2,0.3,0.4,0.1,0.6c1-0.1,2.1-0.5,2.5,0.8c-0.3,0-0.6,0.2-0.8,0.3
	c-1.5,0.8-2.6,1.8-4.1,2.4c-0.5,0.2-1.1,0.7-1.5,1.2c-0.8,0.9-2.1,0.7-2.8,1.4c-0.9,0.7-1.9,1.4-2.8,1.9c-1.3,0.6-4.4,0.1-4.2,1.7
	c0,0.7,0,1.1,0.4,1.8c0.3,0.4-0.1,1.1,0,1.6c0.4,1.6,1.2,3.4,0.1,5c-0.3,0.5-0.9,0.8-1.4,1.1c-0.8,0.5-1.9-0.3-2.6,0.5
	c0.4,0,0.6,0.6,0.6,0.8c-0.1,1.3,0.3,2.8-0.4,3.9c-0.3,0.4-0.7,0.8-1.3,0.6c-0.1,0.4-1,0.1-0.8,0.6c1,1.5,2.8,1.8,4.2,2.9
	c0.6,0.5,1.2,1.1,1.3,2.1c0.4-0.2,0.8,0,1.1,0.2c0.6,0.3-0.1,1.1-0.2,1.6c-0.5,0.9-1.3,1.8-2.1,2.7c-0.5,0.5-1,0.9-1.7,1.3
	c-0.3,0.1-0.4,0.5-0.6,0.7c-1,1.7-2.4,3.1-4,4.3c-1.1,0.7-1.8,2.1-3,2.7c-0.6,0.3-1.1,0.9-2,0.9c0.2,0,0,0,0.2-0.1
	c-1.5,1-3.6,1.9-5.2,0.5c-0.3-0.2-0.5-0.5-0.7-0.6c-1.4-0.9-1.5-2.4-1.5-3.8c0-0.1-0.3-0.2-0.3-0.5c-0.2-1.4-0.6-2.9,0.1-4
	c0.8-1.3,0-2.5,0.7-3.7c0.1-0.2-0.1-0.7,0.4-0.6c0-0.7-0.3-1.5,0.1-2.1c0.2-0.3,0.5-0.8,1-1c0.8-0.5,1.9-0.5,2.5,0
	c0.8,0.5,1.9,1.1,2.2,2c0.2,0.5,0,1.2-0.2,1.9c-0.2,0.4-0.2,1,0,1.3c0.6,1.1,0.6,2.2,1.1,3.4c0.9,2.5,0.8,1.3,1.1,3.9
	c0.1,0.7,1,0.7,1.3,1.2c0.2,0.2,0.8,0.4,1.2,0.2c0.6-0.2,1.1-0.6,1.6-1c0.4-0.3,0.4-0.9,0.6-1.3c1-1.9,2.9-3.1,4.8-4.2
	c-0.1,0-0.2-0.1-0.3-0.3c-0.2-0.3,0.7-0.2,1-0.4c0.1,1.2-0.2,2.5-1.1,3.3c1.5-0.2,3.1-0.6,4.6-1c1.9-0.6,3.6-0.9,5.5-1.3
	c0.6-0.2,1.2-0.2,1.6-0.6c1.5-1.9,2.1-4.1,3-6.3c0.1-0.3,0.1-0.6,0-0.7c-0.8-0.4-1.7,0.4-2.3,1.1c-1.1,1-1.4,1.8-2.4,3.1
	c-0.1,0.1-1,0.2-1.2,0.1c-0.7-0.4-2.1-0.5-2.7-0.9c-0.9-0.5,0.1-1.8,0.6-2.7c0.3-0.7,1.2-1.2,1.8-1.8c1.2-1.7,2.6-3.1,3.4-5
	c0.1-0.2,0-0.6,0.1-0.7c0.6-1.1,1-2.3,1.6-3.6c0.3-0.6,1.2-0.6,1.8-0.4c1.5,0.6,3,1.7,4.5,2.4c-0.1,1.3-0.4,3.3-1.6,3.3
	c0.4,0,0.6,0.4,0.8,0.4c0.6,0.1,1.2-0.5,2-0.3c0.4,0.2,0.4,0.5,0.7,0.8c0.2,0.1,0.4,0,0.7,0c0.5,0.2,0.5,1.1,1.2,1.1
	c0,0.5-0.1,1.1-0.2,1.7c-0.3,0.8-1.1,0.9-1.6,1.6c-0.9,1.2-1.5,2.4-2,3.7c-0.2,0.5-0.9,0.8-1.2,1.5c3,0,5.9-0.6,8.8-1.4
	c0.3-0.1,0.7-0.5,0.9-0.7c0.5-0.7,1.6-0.4,2.4-0.8c0.5-0.3,1-0.6,1.4-1.1c0.2,0.2,0.6,0.4,1,0.4c1.8,0.4,3.7-0.6,5.2,0.4
	c0.7,0.4,1.4,0.9,2,1.4c0.3,0.4,1.2,0.2,1.5,0.7c0.6,1.2,1,1.6,1.5,2.8c0.3,0.4,0.5,1.3,0.2,1.7c-0.7,0.7-0.8,1.4-1.5,2.2
	c-1.1,1.2-2.7,1-4.1,0.6c-3-0.7-5.9-1.1-8.5-2.8c-8.3-0.9-13.4-0.7-17.1,4.8c-0.1,0.2,0.9,0.2,1,0.8c0.9-0.4,0.6-1.3,1-2
	c0.5-1.2-0.6-3.1,0.7-3.9c1.1-0.6,2.7-0.2,4.1,0.5c1.2,0.6,2.5,1,3.2,2c0.4,0.5-0.4,1.5-0.3,1.9c0.6,1.8,3.2,1,4.7,1.7
	c1.1,0.4,2.3,0.4,3.1,1.4c1.4,1.7,1.6,4.6,0.3,5.9c-0.9,1-1.6,2.1-1.8,3.3c-0.2,1-0.3,2.1-0.8,3c-0.7,1.2-2.1,2.1-2.7,3.4
	c-0.1,0.5-0.6,0.8-0.9,1.2c-1.4,2-4.1,2.6-6.5,2.2c-0.4-0.1-0.9-0.2-1.4-0.3c-1.8-0.5-3-2.1-3.3-3.8c-0.2-2.6-0.8-5.2-0.5-7.9
	c0-0.2,0.4-0.1,0.5-0.2c0,1.8,0.6,3.6,0.8,5.3c0.2,1,1,1.6,1.7,1.9c0.7,0.3,1.6,0.3,2.2,0c0.7-0.1,1.1-0.8,1.8-1.3
	c1.2-0.9,1.9-2.2,2.3-3.7c0.3-1.7,0.2-1.4-1.6-4.4c-0.6-1.1-2.2-0.2-3.4,0.2c-1.2,0.3-1.9,1.2-2.7,2.1c-1.3,1.4-2.2,2.9-3.5,4.4
	c-1,1.2-2.2,2-3.6,3c-0.8,0.5-1.8,0.9-2.5,1.5c-1.3,0.9-3,2.6-4.6,2.1c0.8,0.1,1.7,1.1,2.4,1.2c0.8,0.3,1.6,0,2.4,1.1
	c0.5,0.7,0.7,1.5,1.2,1.9c1.1,0.7,2.1-0.9,3.1-1.2c1.4-0.4,3.1,0,4.7-0.2c0.3-0.1,0.4-0.2,0.5-0.3c0.7-0.2,1.4-0.2,1.8,0.3
	c0.3,0.4,0.2,1.2,0.7,1.3c0.6,0.1,1.3,0.3,1.8,0.6c0.4,0.2,0.6,0.4,0.8,0.6c0.1,0.1,0.5-0.1,0.5,0c1.5,1.9,2.7,3.7,4,5.6
	c0.5,0.7,0.7,1.6,0.7,2.2c0.1,1.2-0.7,2.1-1,3.1c-0.4,1.3-1.5,2.5-1.9,3.9c-1.9,5.7-7.1,11.1-6.4,12.3c0,0,3-0.2,4.3-0.8
	c2-1,4.3-1.3,6.4-2.4c0.5-0.3,1.3-0.3,1.6,0.2c0.8,1.1,1.9,1.9,2.6,3c-0.8,0.9-1.7,1.9-2.1,3c-0.2,0.5-0.9,0.5-1.4,0.6
	c-0.9,0.2-1.5,1.3-2.3,0.9c-0.9-0.4-2-0.4-2.9-0.2c-0.5,0.2-1.6,0.5-1.6,0.7v0.2c-1.2,0.3-2.3-0.7-3.3-0.1c-0.9,0.5-1.7,1.2-2.6,1
	c-0.5-0.1-0.8-0.4-1.2-0.2c-0.4,0.3-0.9,0.6-1.2,1c-0.5,0.6-1.4,0.4-2.3,0.1c-0.8-0.1-1.9-0.2-2.7,0.1c-5.5,2-11.1,2.1-16.9,3.4
	c-0.6,0.1-0.8,0.5-1.1,0.7c-1.7,1.2,0.2,3.1,0.5,4.8c1.7-0.4,3.4-1.2,5-1.7c1.2-0.3,2.4-0.2,3.5-0.4c4.6-1.2,8.8-1.9,13.4-2.8
	c6.4-1.3,12.5-0.7,18.8-1.6c0.5-0.1,1.2-0.9,1.8-1.3c1-0.8,2.4-0.4,3.6-0.2c0.8,0.1,0.9,1.1,1.6,1.4c1.2,0.5,2.4,1.3,3.7,1.7
	c0.4,0.2,0.6,0.8,0.7,1.3c0.2,0.6,0.4,1,1.1,1.2c0.2,0.1,0.5,0.5,0.4,0.8c-0.4,1.6,0.7,3.1,0.4,4.6c-0.1,1-0.8,1.7-1.4,2.5
	c-0.7,0.8-2,0.8-2.4,1.7c-0.1,0.2-0.4,0.7-0.4,0.8c-2.1,1.6-4.3,2.7-6.5,3.9c-0.3,0.2-0.7,0-1,0.1c-0.2,0.2-0.4,0.6-0.6,0.7
	c-1.1,0.7-1.9,1.5-3.1,2c-0.5,0.3-1,0-1.6-0.2c-0.5-0.1-1.1,0.1-1.7-0.1c-0.1-0.1-0.3-0.4-0.6-0.5c-0.7-0.3-0.4,0.5-0.8,0.9
	c-0.2,0.3-0.7,0.2-0.8,0c-0.3-0.4,0-0.7,0.4-1c-0.6-0.8-1.6-1.1-2.3-1.9c-0.2-0.1-0.6-0.5-0.4-0.9c-0.8-0.3-1.5-0.3-2.3-0.4
	c-1.3-0.2-1.3-1.7-1.8-2.7c-0.4-0.7-1-1.1-1.4-1.7c-0.2-0.2-0.3-1.1,0.1-1.1c0.4-0.1,0.7,0.5,1,0.8c1.3,0.8,2.5-0.3,3.8,0.6
	c0.7,0.4,2.6,0.3,2.1-0.9c0-0.1-0.1,0-0.2-0.1c-0.2-0.4,0.2-0.6,0.3-0.6c2.5-1,4.7-2.6,5.9-5c0.2-0.5,0.2-1.5-0.4-1.6
	c-2.8-0.2-5.5-0.2-8.2,0c-1.5,0.1-3,1.3-4.2,0.6c-0.9-0.5-1.7-0.6-2.7-0.4c-1,0.4-1.9,0.8-2.8,1.3s-2,0.1-3.1,0.3
	c-0.5,0.1-1.1,0.2-1.7,0.5c-1.5,0.9-3.4,0.8-4.7,1.9c-0.2,0.2-0.4,0.8-0.4,1.3c0.4,2.9,0.4,5.7,1.3,8.4c1.8-0.7,3.8,0,5.6-0.5
	c0.9-1.5,0.6-3.2,0.6-4.9c0-0.6-0.6-1.1-0.5-1.8c0.1-0.8,1.1-1,1.8-0.7c1.2,0.6,1.9,1.9,3,2.5c0.1,0.2,0.6,0,0.7,0.2
	c0.7,1,1.7,1.7,2.2,2.7s0.5,2.2,0.6,3.4c0.1,0.3,0.5,0.6,0.7,1c0.2,1.6-0.2,3.3-0.7,4.9c-0.3,0.7-1.3,0.9-1.6,1.8
	c-0.5-0.2-1.2-0.2-1.4-0.4c-0.7-0.7-1.5-0.4-2.3-0.5c-0.3,0-0.1-0.4-0.2-0.6c-0.3-0.9-1.4-1-1.9-1.8c-0.1-0.4-0.4-0.6-0.3-1
	c-1.7,0-3,1.3-4.7,1.7c-0.1,0-0.3,0.2-0.4,0.3c-0.9,0.5-1.7,1.2-2.6,1.5c-3.1,1.2-6.3-0.3-9.4,0c-0.9,0.1-1.9,0.1-2.6,0.7
	c-0.6,0.5-1.2,0.7-1.9,0.8c-0.8,0.2-1.2,1-2,1.2c-1.2,0.1-2.4-0.4-3.4-0.7c-0.3-0.2-0.5-0.4-0.8-0.6c-0.7-1.1-1-2.2-1.7-3
	c-0.5-0.8,0.4-2.2,0-3.3c-0.4-1.5,0.8-2.7,0-3.9c-0.4-0.6-0.6-1.2-0.5-1.9c0.1-0.2,0.5-0.1,0.5-0.3c0-0.4,0.4-1,0.9-1
	c0.8,0,1.5-0.8,2.2-0.5c1.2,0.6,2.3,1.4,3.4,2.3c0.4,0.4,1.1,1,0.8,1.4c-0.4,0.6-0.4,1.5-1.1,1.6c-0.9,0.4-1.4-0.4-2.2-0.5
	c0.1,0.3-0.3,0.4-0.1,0.5c0.8,0.9,1.3,2,2.2,2.8c0.3,0.2,0.3-0.4,0.6-0.3c0.1-0.8-0.1-1.4-0.6-2.1c-0.2-0.1-0.1-0.6,0-0.6
	c0.7-0.3,0.6,1.4,1.1,1.5c1.5,0.2,3-0.1,4.6-0.4c0.3,0,0.1-0.3,0.1-0.4c0.8-0.3,1.6,0.1,2.4-0.2c-0.4-0.4,0-0.9,0.4-1
	c0.4-0.2,0.6,0.1,0.9,0.4c0.1,0,0.1,0.3-0.1,0.3h0.6c-0.3-1.2,0.5-2,1.1-2.9c0.9-1.5,0.2-3.3-0.1-5c-0.2-0.9-1.6-0.8-2.4-0.6
	c-0.6,0.3-0.4,1.4-0.8,1.9c-0.8,1.5-2.6,1.2-3.9,0.8c-0.8-0.3-0.9-1.3-1.5-1.9c-0.2-0.1-0.5-0.3-0.6-0.5c-0.2-0.2-0.3-0.4-0.4-0.5
	c-0.5-2.3,0.7-4.4,0.6-6.6c-0.5-6-0.9-11.9-0.7-17.9c0-0.4,0.2-1,0.2-1.4c0-3.5-0.3-7.1,0-10.7c0.3-1.7,1.1-3.1,1.9-4.6
	c0.3-0.4,0.1-1,0.3-1.5c0.2-0.5,0.6-1.1,1.2-0.7c0.5,0.5,1.3,1,1.3,1.5c0.2,2.7-1,5.3-1.2,7.9c-0.3,3.4-0.3,6.8-0.1,10.2
	c0.1,1.6,0.1,3.1-0.2,4.7c-0.2,1.8,0.7,3.4,0.4,5.3c4.1-0.2,7.8-1.3,11.9-1.8c0.4,0,0.6-0.4,0.6-0.5c0.1-1-0.4-1.9-0.5-2.9
	c0-0.1-0.1-0.4,0-0.5c0.7-0.5,1.4-0.9,1.6-1.6c1.9-4.9,3.4-10,3.2-15.2c0-0.1-0.2-0.2-0.2-0.3c-0.1-0.8-0.5-1.9-1-2
	c-5.1-0.7-10.1,0.1-15.2-0.7c0.1-0.2,0.3-0.3,0.4-0.4c0.4-0.4,1.1-0.2,1.6-0.5c2-1.1,3.7-1.9,5.8-2.6c0.4-0.1,0.4-0.6,0.8-0.7
	c-1.4-0.5-2.8-1.7-4.1-1.3c-0.4,0-0.9,0.2-1.3,0.7c-0.1,0.1-0.5,0.3-0.6,0.1c-0.4-0.4,0.2-0.1,0.2-0.4c0-0.4-0.1-1,0-1.2
	c0.4-0.5,0.9-0.9,1.1-1.3c0.7-1.6,0.1-3.9,1.6-4.4c1.6-0.6,3.7,0.1,5.2-0.7c0.3-0.3-0.2-1.4-1-1.4c-0.2-0.1-0.7-0.8-0.5-1
	c0.4-0.2,0.9-0.6,1.4-0.7c1.1-0.7,1.9-1.6,3.2-2.1c1.1-0.5,1.9-1.3,2.7-2.1c2.1-2,4.2-3.8,6-6.1c0.6-0.8,1.1-2.7,1.3-2.6
	c-0.6-0.2-1.6-0.7-2.1-1.2c-1.2,1.2-2.3,2.3-3.5,3.6c0,0.1,0-0.6-0.2-0.6c-1.1,0-1.9,1.3-2.9,0.8c-0.7-0.3-1.3-0.6-1.8-1.1
	c0.8-0.4,1.7-0.8,2-1.7c0.2-0.7-0.1-1.6,0.2-2.2c0.4-0.8,1-1.7,1.8-2.1c0.7-0.3,1.4-0.6,2.1-1.1c0.2-0.1,0.3-0.8,0.2-0.8
	c-3-0.5-5.9,0.5-8.8,0.6c-0.3,0.1-0.5,1.1-0.8,1.5c-2.5,2.7-4.8,5.2-7.6,7.3c0.1,1.5-0.5,3-0.3,4.6c0.2,1,0.8,1.9,0.6,2.8
	c-0.2,0.4-0.7,0.9-1.1,1c-1.2,0.2-2.8,0.6-3.9-0.3c-0.8-0.8,0.4-2.8-0.8-3.1c-2.2-0.6-3.9,1.8-5.8,3.1c-0.8,0.5-1.7-0.4-2.5-1.1
	c-0.3-0.2-1.1-0.7-1-0.9c0.8-1.4,1.2-2.6,1.5-4.2c0.1-0.4,0.4-0.7,0.5-0.7c0.8-0.2,1.7-0.1,2.4-0.4c2.2-1,5.2-3.1,5.8-4.5
	c-0.1,0.3-0.1,0.3-0.2,0.3c0.5-0.3,0.4-0.7,0.4-1c0.6-1.9-0.2-3.7-0.6-5.5c-0.1-0.9,0.1-1.8-0.4-2.8c-0.4-0.7-0.5-1.4-1.2-1.8
	c-0.6-0.5-0.8,0.1-1,0.7c-0.6,2.8,0,5.6,1.7,7.7c2.3-0.2,3.5-2.6,5.2-3.5c2.1-1.1,3.8-2.9,5.4-4.9c0.3-0.5,0.3-1.3,0.1-1.7
	c-1.4-1.5-3.8-1.4-5.2-2.8c-0.9-1.1-2.4-1.5-3.1-2.7c-0.4-0.7-0.1-1.9-0.4-2.8c-0.1-0.1-0.2,0-0.3,0c0,0.3-0.1,0.6-0.3,0.7
	c-0.5,0.4-0.7-0.3-1-0.4c-0.3-0.3-0.6-0.8-1-1c-0.3-0.2-0.9-0.2-1.1-0.6c-1.1-2.4,0.4-4.6,2.5-6c0.1-0.2-0.2-0.7,0-0.9
	c0.6-0.6,1.5-0.6,2.4-0.9c1.6-0.5,3.4,0.4,5.2-0.1c0.1,0,0.2-0.1,0.1-0.3c0.5,0,1.3,0,1.3,0.3c0.2,1.1,0.5,1.2,1.2,1.9
	c0-1.1,0.7-1.7,0-2.4c-0.3-0.3-0.7-0.7-0.7-1.1c-0.3-1.2-0.7-2.3-1-3.5c-1.4,0-2.9-0.2-4,0.5c-1.1,0.6-2.2,0.9-3.2,1.7
	c-0.5,0.5-0.8,1-1.3,1.6c0.4-0.1,0.9-0.2,1.1-0.6c0,0,0.3,0,0.4,0c0.5-0.1,0.7-0.9,1.1-0.5c0.2,0.3-0.2,0.9-0.5,0.9
	c-2.6,1.1-5.3,2.5-7,4.3c-1,1.1-2.7-0.1-3.8-0.9c-0.8-0.5-1.6-1.1-1.9-1.8c-0.8-1.9-0.3-3.9,0.4-5.8c0.4-0.8,1-1.3,1.1-2.2
	c0.1-0.3,0.3-0.5,0.6-0.5c0-0.5,0.4-0.8,0.6-1.1c0.3-0.8,0.3-1.6,0.6-2.2c0.1-0.3,0.5-0.7,0.8-0.8c1.5-0.6,3-0.5,4.5-1
	c2.1-0.8,4.2-1.6,6.4-2.5c-0.2,1.3-1.5,1.6-2.3,2.4c-0.2,0.3-1,0.1-1.3,0.5c0.5,0,1,0,1.4-0.1c0.6-0.3,1.2-0.4,1.7-0.7
	c0.4-0.2,1,0,1.3-0.1s0.6-0.4,0.8-0.5c0.3-0.2,0.7-0.2,1,0.1c0.1,0.1,0.1,0.4,0,0.5c-1,0.7-2.2,0.3-3.3,0.6
	c-0.3,0.1-0.2,0.4-0.2,0.4c1.5,0.5,3-0.3,3.7-1.7"/>
<path class="st1" d="M105.2,115.4c-0.5,0.1,0.6,0.5,0.8,0.5c1.2,0.2,2.2-0.9,3.5-0.5c0.1,0,0.1,0.2,0,0.3c-0.7,0.5-1.7-0.4-2.5,0.2
	c-0.1,0.1,0.2,0.5,0.4,0.6c0.5,0.1,1,0,1.5-0.2c0.6-0.2,1.5-0.3,1.9,0.2c0.1,0.2,0.1,0.5,0,0.6c-0.6,0.4-1,0.7-1.7,0.6
	c0.1,0.9,1.4,0.4,1.8,0.8c0.1,0.1,0,0.5,0,0.5c-1.1,0.3-2,0.7-3,0.9c-0.8,0-1.9,0-2.3,0.9c0.8,0.4,1.5-0.3,2.3-0.4
	c1.2-0.1,2.5-0.7,3.6-0.3c0.2,0.1,0,0.7-0.4,0.7c-0.4,0.2-0.9-0.3-1.2,0c-0.2,0.2-0.1,0.6-0.1,0.9c-0.9-0.1-1.7,0.4-2.8,0.5
	c-0.1,0.1-0.3,0.4-0.2,0.6c0.1,0.4,0.5,0.4,0.8,0.3c2.2-0.9,4.5-0.7,6.8-0.2c0.8,0.2,1.3,1,2.2,1.3c0.5,0.1,0.7,0.6,0.9,1
	c0.6,1.9,1.7,3.5,1.5,5.4c0,0.8-0.6,1.6-1.2,2.1c-0.5,0.4-1.2,0.5-1.8,0.9c-0.4,0.4,0,0.9-0.2,1.2s-0.5,0.6-0.8,0.6
	c-0.6,0.2-1.4,0.6-2.1,0.7c-1.2,0.1-2.3,0.2-3.3,0.6c-3.9,1.6-7.3,3.8-11.2,5.6c-1.1,0.4-0.3,1.5,0.5,1.6c2.2,0.2,4.5,0.4,6.5-0.5
	c1.5-0.6,3-1.5,4.5-1.6c2.5-0.2,5-0.6,7-2.3c0.2-0.1,0.6-0.1,0.7-0.3c0.3-0.2,0.4-0.5,0.5-0.5c1.9-0.9,3.5-2,4.6-3.9
	c0.5-1,1.6-1.7,2.3-2.5c0.2-0.2,0.5-0.7,0.5-1.1c-0.1-0.9-0.1-2,0.3-3c0.4-1.1,0.6-2.6,0-3.7c-0.4-0.6,0-1.7-0.3-2.4
	c-0.1-0.3-0.4-0.7-0.8-1c-0.1-0.1,0.1-0.5-0.1-0.8c-0.1-0.4-0.5-0.6-0.8-0.9c-0.5-0.3-0.3-1.1-0.5-1.7c0-0.1,0-0.5-0.2-0.6
	c-0.5-0.2-1-0.6-1.4-1.1s-0.5-1.3-1.1-1.6c-1.3-0.4-1.8-1.4-2.7-2.2c-0.4-0.3-1.4-0.2-1.7,0.3c-0.3,0.5-0.7,0.5-0.9,0.7
	c-0.3,0.3-0.7,0-1,0.2c-0.4,0.3-0.2,1-0.6,1.1c-0.9,0.4-1.8-0.5-2.6-0.1C109.4,115.1,107.3,114.6,105.2,115.4"/>
<path class="st1" d="M88.6,134.5c-0.3,0-0.5,0.1-0.6,0.3c-0.3,0.6,0.3,1.2,0.1,1.7c-0.2,0.5-0.7,1.1-1.2,1.2
	c-0.9,0.1-1.8,0.7-2.2,1.4c-0.4,0.8-1.3,1.9-0.6,2.9c0.6,0.7,1.5,0.7,2.3,0.9c0.1,0,0.4,0.1,0.6,0.1c2.4,0.3,4.6-0.6,6.9,0
	c1.6,0.5,3.6,1.5,4.8,0c0.6-0.5-1-1-0.7-1.5c0.5-1,2.4-1,2.7-2c0.3-0.6-0.1-1.4,0-2.2c0-0.2-0.1-0.5-0.1-0.6c-0.2-0.8-0.1-1.7-1-2.1
	c-0.4-0.3-1.1-0.5-1.6-0.6C94.9,133.5,91.8,134.2,88.6,134.5"/>
<path class="st1" d="M92.6,119c-0.2,0.2-0.3-0.2-0.6-0.2c0.4-0.5,0.9-0.7,1.4-0.5c0.4,0.1-0.2,0.3-0.2,0.5
	C93.1,118.9,92.8,118.8,92.6,119"/>
<path class="st1" d="M94.7,118.6c0-0.2-0.1-0.6,0-0.7c0.5-0.4,0.7,0.1,0.7,0.5C95.4,118.7,95,118.5,94.7,118.6"/>
<path class="st1" d="M98.5,117.5h-1.6c0-0.2,0.1-0.5,0.4-0.5c0.7-0.2,1.4-0.2,2.1-0.6c0.2,0.9-0.6,0.7-1.2,0.9
	C98.2,117.4,98.4,117.4,98.5,117.5"/>
<path class="st1" d="M101.2,116.7c-0.2,0.1-0.7,0-0.9-0.2c-0.1-0.1,0.3-0.4,0.4-0.4c1.1-0.2,2.2-0.7,3.3-0.5v0.2
	C103.2,116.8,102.1,116.1,101.2,116.7"/>
<path class="st1" d="M98.9,119.2c-0.1,0,0.2-0.4,0.5-0.6c0.3,0,0.7,0,0.8,0c1.1-0.4,1.9-0.8,3-0.6v0.2
	C101.8,118.6,100.3,119.3,98.9,119.2"/>
<path class="st1" d="M104.9,118.2c-0.2,0.1-0.7,0.3-0.9,0c0-0.1,0-0.3,0-0.3c1.5-0.5,3.1-1.2,4.6-0.7c0.3,0-0.2,0.4-0.4,0.4
	C107,117.7,106,117.6,104.9,118.2"/>
<path class="st1" d="M96.6,119.8h-0.4c-0.3-0.9,1.1-0.7,1.9-0.6C97.7,119.8,97.2,119.9,96.6,119.8"/>
<path class="st1" d="M104.7,123.7c-0.3,0-0.6,0.1-0.8,0c-0.3-0.1-0.5-0.5-0.3-0.7c0.3-0.5,1.1-0.8,1.5-0.3
	C105.5,123,105.3,123.8,104.7,123.7"/>
<path class="st1" d="M108,122.5c-0.4-0.3-0.3-0.9-0.3-1.3c0.3,0,0.6-0.1,0.8,0c0.3,0.2,0.6,0.7,0.2,0.9
	C108.5,122.3,108.2,122,108,122.5"/>
<path class="st1" d="M73.6,207.6c0.8,0.2,1.1,0.6,1.4,1.4c0.4,0.6,1.5,0.9,1.7,1.9c0,0.3,0.4,0.3,0.5,0.5c0,0.1,0,0.3,0,0.5
	c0.2,0.2,0.5,0.2,0.7,0.2c0.4,0.2,0.9-0.1,1.2,0.1c2,1.3,4.4,1.2,6.5,0.5c0.7-0.2,1.1-1.4,1.9-1.5c0.4,0,0.7-0.1,0.9-0.2
	c0.7-0.6,0.9-1.7,0.5-2.5c-0.1-0.3-0.7-0.3-1-0.4c-0.8-0.5-0.9-1.8-1.6-2.3c-0.6-0.5-1.3-0.2-2.1-0.3c-0.5-0.2-0.9-0.3-1.4-0.4
	c-2-0.6-3.9,0-5.5,0.8c-0.4,0.1-1.1,0.6-1.9,0.8v0.2C75,207.1,74.3,207.4,73.6,207.6"/>
<path class="st1" d="M75.6,215.4c-0.9,0.6-0.8,1.7-1.2,2.5c0.4,0.2,0.5,0.6,1,0.7c0.7,0.4,1.4,1.4,1,2.2s-1.2,1.1-1.3,2
	c0.8-0.2,1.1-0.9,1.9-1c1.4-0.5,2.8,0.1,4.1-0.6c1.3-0.7,2.2-1.9,3.6-2.2c0.4-1.7-0.9-2.9-2.1-3.8c-0.8-0.6-1.9-0.4-2.9-0.7
	c-1.3-0.6-3-0.2-4.3,0.5C75.4,215.1,75.5,215.3,75.6,215.4"/>
<path class="st2" d="M147.9,121.9c-1.9-0.9-8-7-7.8-7.5c0.1-0.1,4.3-3.8,7.1-5.7l0.2-5.8c-3.4,3.2-7.3,8.2-12.4,10.5l-0.5,3.4
	c5.6,0.9,10.8,7.8,11.7,10.8L147.9,121.9z"/>
<polygon class="st2" points="135.5,141.9 143.8,141.7 145.6,139.4 149.2,141.9 145.4,143.9 144.4,145.5 149.2,146.9 152.5,152.6 
	150,157.3 143.3,159.2 138.3,158.4 137.3,154.5 144.6,156.1 147.2,155.2 148.2,152.2 146.8,150.3 143.6,148.9 141.1,148.9 
	132.9,155.3 132.9,151.1 136.8,149.6 140.1,146.7 140.9,144.9 136.7,145.3 "/>
<polygon class="st2" points="132.2,131.3 145.5,127.1 150.5,129.4 152.3,132.1 151.7,136.1 149.8,138.4 142.5,140.1 139,136.9 
	146.4,136.7 148.6,135.6 148.8,133.7 148.4,132 142,130.8 136.7,133.8 "/>
<polygon class="st2" points="134.5,162.9 141.9,162.6 141.7,158.5 144,158.4 146.1,162 149,161.7 149.9,163.2 148.7,165.2 
	145.8,165 146.2,166.6 150.4,166 151.4,168.6 148.4,168.7 148,169.7 151.6,173.5 149.4,175.5 144.1,173.2 140.5,174 140.2,175.1 
	142.8,176.8 146.5,176.6 148.8,179.7 143.8,180.4 140.4,179.5 136.7,176.4 137.8,171.9 143.9,170.9 143,169.6 136.3,170.8 
	135.2,168.1 141.5,167.9 142.9,167.2 141.7,165.3 137,165.8 "/>
<polygon class="st2" points="151.4,162.4 152.6,160.3 154.5,161.4 152.9,163.6 "/>
<polygon class="st2" points="154.5,164.6 156.5,161.1 158.4,162.8 156.3,165.8 "/>
<polygon class="st2" points="142.6,181.8 139.9,182.1 134.6,189.8 136.5,194.2 142,194.6 144.3,191.5 145.4,185.5 146,182 
	145.4,179.3 143,179.3 143.7,184.2 143,188.2 140.9,191.4 139.4,191.7 137.8,189.8 137.6,187.2 140.2,184.4 144.2,183.7 146.4,185 
	149.4,187.7 149.2,191.1 146.5,195.3 151,195.7 152.9,191.5 152.9,187.2 146.6,182.3 "/>
<path class="st2" d="M41.3,118.4c-1.4,1-0.4,2.5-2.2,4.1c-1.7,1.5-4,3-5.8,4.9c-3.6,4.2-6.2,8.6-9.6,13c-5.3,6.9-9.6,14.1-12.1,22.3
	C9.9,168,9,173.4,8.3,179.1c-0.8,8.2,0.2,15.9,1.5,24c1.5,8.7,5.2,16.5,8.9,24.3c9.2,19.4,26,33.7,45.5,42c3.9,1.7,7.6,3.3,11.9,4.5
	c7,1.9,13.9,3.1,20.9,2.3c1.6-0.2,3.8-0.5,5-0.4c8.3,0.4,16.6-1.2,23.9-4.2c9.6-3.8,19-8,27-15.2c9.3-8.3,17.7-16.6,23.4-27.6
	c5.6-10.8,9.3-21.8,10.5-33.7c0.6-5.7,0.8-11.4,0.4-17.1c-0.3-3.9-1.3-7.8-2.3-11.9c-4.6-20.6-17.3-35.5-31.1-50
	c8.7,6.7,15.9,14.5,22.3,23.8c6.5,9.5,8.9,19.5,11.6,30.6c0.4,1.5-0.3,3.2,0,4.3c3.1,17.4-0.3,33.7-6,49.5
	c-2.9,8.1-8.7,14.2-14.1,21.1c-5.7,7.2-12.5,12.5-19.2,18.7c-3.4,3.2-7.8,4.5-11.8,6.3c-2.1,1-4.7,1.9-7.3,2.4
	c-2.7,0.4-5.5,1.7-8.3,2.6c-5.2,1.9-11,2.8-16.4,3.2c-8.3,0.4-16.6,1.1-25.2-0.4c-7.3-1.1-13.9-3.1-20.2-6.2c-6-3-11.5-6.2-17.5-9.5
	c-5.5-3.1-9.3-7.7-14-11.8C16,240.6,9.6,227.2,4.4,213.2c-7-18.3-5.4-38.3,0.5-56.7c2.3-7.1,4.9-14,9.4-20.3
	c4.4-6.3,8.9-11.4,14.6-16.7c4.5-4.4,4.8-2.7,6.3-4.5c0.2-0.1,0.2-0.3,0.2-0.6L41.3,118.4z"/>
<path class="st1" d="M35.4,114.4c0.5-0.7,0.5-1.7,0.8-2.6c0.3-1.1,1.3-2.4,0.5-3.5c-0.6,0.4-1.3,1-1.8,0.6c-0.8-0.6-0.4-2.2-1.1-2.5
	c-7-2.8,5.6-10.2,9.4-12.4c1.2-0.7,0.9-3,0.8-4.8c-0.4-2.4-1.8-4.4-1.4-6.9c0.2-0.6,0.7-1.1,1.2-1.2c2.3-0.9,5,1.5,4.1,3.3
	c-0.7,1.4-1.8,1.2-2.3,2c-1,1.8-0.1,4.2,1.1,5.2c0.7,0.5,1.8-1.8,3-3.2c1.7-1.9,3.5-4,2.9-6.3s1.5-4.2,3.2-4.2
	c2.5-0.2,1.6,2.7,1.8,4.2c0.1,1.2-2.2,1.2-2.6,2c-2.2,4-1.5,10,1.4,11.2c0.8,0.6,2-2.6,3-3.6c1.5-1.4,4-1,5.6-2.7
	c1.1-1.2,2.2,0.5,3.7,0.3c1.6,3.5,1.3,5.2-2.9,7.8c0.3,1-1.6,1.7-0.4,2.4c1.4,1,3.8,0,4.7,1.5c0.3,0.5-0.3,1.1-0.1,1.9
	c0.3,0.7,0.3,1.8,0,2.1c-1.9,2.1-6.9,1.5-9.4,3.2c-0.8,0.6,0.6,6.6-1.6,8.4c-0.3,0.3-1.8-0.3-1.9,0.3c-0.2,1.2-1.2,1.4-2.2,1.1
	c-2.6-0.5-3.7-5.9-4.7-5.5c-2.3,1.1-6.8,4.7-8.6,6L35.4,114.4z M34.6,104.8c0.2,0,0.4-0.1,0.5-0.2c3.1-2.7,6.7-3.7,10.7-4.5
	c0.6-0.1,1-0.8,0.7-1.6c-0.3-1.1-1-2.4-2.2-2.4c-4.8,0.1-8.2,3.9-10.5,7.9c-0.2,0.4,0.4,0.2,0.6,0.4
	C34.5,104.6,34.5,104.8,34.6,104.8 M38.2,106.2c1.4-0.4,3.1-0.9,4.2,0.1c0.3,0.2-0.8,0.8-1.2,1.1c-1.6,1-1.8,3-2.9,4.6
	c-0.2,0.5-0.5,1.2,0,1.6c0.2,0.2,0.7,0.2,0.7,0c3.4-3,6.3-5.9,9.6-8.8c0.7-0.6,0-2-0.7-2.1c-4.1-1-8.3,0-11.6,2.5
	c-0.3,0.4-0.3,1-0.1,1.2C36.7,106.8,37.5,106.4,38.2,106.2 M42.7,116c0.4-0.2,0.4-0.8,0.8-1.1c2-1.3,4-2.3,5.4-4.1
	c0.4-0.4,0.6-1,1-1.1c0.5-0.4,1.4-0.1,1.6,0.5c0.6,1.1,0.9,2.3,2.1,3c0.3,0.2,1.1,0.2,1.1-0.3c0.4-2.3-0.5-4.9-2.2-6.5
	c-0.7-0.6-1.9,0-2.8,0.4c-1.1,0.5-2.2,1.2-3.2,2c-2.3,1.7-3.5,4.1-5.5,6.1c-0.2,0.3-0.2,0.7-0.2,1.1C41.5,115.9,42.1,116.3,42.7,116
	 M51.7,89.2c-0.9,0.3-1.5,1-2.2,1.7c-0.9,0.7-1,2-1.8,3c-0.3,0.5-0.2,1.2,0,1.8c0.6,1.5,1.2,2.9,2.1,4.3c0.3,0.5,0.4,1.2,1,1.4
	c0.3,0.1,0.7,0.1,0.7,0c0.4-3-0.3-5.9,0.1-8.8c0.1-1.1,0.4-2.2-0.5-3 M52.7,94.5c-0.4,2.6-1,5.4,0.4,7.8c2.2,0,2.6-3.2,2.9-5
	c-0.7-0.1-1.2,0.3-1.5,0.8c-0.9-0.9,0.5-3.9-1.6-3.1 M62,93.6c1.3-0.7,2.4-1.2,3.7-2.1c0.3-0.2-0.1-0.9-0.4-0.8
	c-2.9,0.3-5.7,2.1-6.9,4.7C59.8,95.7,60.8,94.3,62,93.6 M62.4,95c-1.5,0.2-2.5,1.2-3.5,2.1c-0.5,0.5-0.8,1.2-1,1.7
	c-0.5,0.8-1.2,2.1-0.6,2.5c0.9,0.6,2.2,0.3,3.4,0c0.8-0.2,1.8-0.1,2.5-0.5c0.8-0.6,0-1.5-0.8-2.2c-0.5-0.4,0.2-1.2,0.8-1.6
	c0.7-0.5,1.8-0.6,2.3-1.2c0.9-1,3-2,2.2-3.7c-0.1-0.1-0.7-0.1-1,0.1c-1,0.7-1.7,1.5-3,2c-0.2,0.1-0.4,0.5-0.6,0.9
	C62.9,95.1,62.6,95,62.4,95 M56.2,104c-1.1,0.7-1.3,2.1-0.9,3.2c0.7,2,1.9,3.8,1.8,6c0.6-0.1,0.2,0.7,0.5,0.5
	c0.4-0.1,0.9-0.3,0.9-0.8c0.1-1.8-0.6-3.4-1.1-5.2c1.2-0.4,2.6-0.3,3.9-0.5c1.1-0.1,2.2-0.6,3.2-1c1.1-0.5,2.3-0.8,3-2.1
	c0,0,0-0.3-0.1-0.4c-0.5-0.5-1.2-0.6-1.9-0.7c-2.6-0.3-5.4-0.5-7.9,0.3v0.2C57.1,103.8,56.6,103.8,56.2,104 M55.6,79.6
	c-0.2-0.2-0.7-0.2-0.8,0c-0.4,0.3-0.8,0.7-0.4,1.2c0.3,0.5,0.8,0.9,1.3,0.6C56.2,80.9,56.3,79.9,55.6,79.6 M44.8,82.8
	c-0.5,0.4-0.6,1.4,0,1.8c0.5,0.2,1.3,0,1.4-0.6C46.4,82.8,45.6,82.3,44.8,82.8"/>
<path class="st0" d="M219,102.6c-3.3-2.6-5.8-5.8-7.7-10c0,2.2,0.1,5.9,0.2,8.6c1.6,0,3.1-0.1,4.6-0.3l0.1,1.6h-4.5
	c0,1.5,0,2.6,0.1,3.7h-1.7v-3.6c-1.4,0-2.8,0.1-4.5,0.2v-1.6c1.5,0.1,3,0.1,4.5,0.1c0-2.6,0-6.2-0.1-8.5c-1.3,4-3.6,7.4-7.3,10.4
	c0,0-0.3-0.8-1-1.5c3.4-2.4,5.7-5.9,6.9-9c-2.2,0-4.5,0.1-6.5,0.3v-1.7c2.5,0,5.2,0,7.9,0c0-1.5-0.1-2.1-0.2-2.3
	c-0.1-0.5-0.2-0.7,0.1-0.6c0.6,0,1.1,0.1,1.7,0.2c0.3,0,0.2,0.3,0,0.5c-0.1,0.3-0.1,0.6-0.1,0.9v1c2.8,0,5.6-0.1,8.1-0.3v1.7H213
	c1.6,3.4,4.5,7.1,7.3,8.7C219.4,101.7,219,102.6,219,102.6"/>
<path class="st0" d="M219.6,120.4c-2.1-0.6-3.9-1.5-5.3-2.6c-1.3,1.3-3,2.2-5.3,2.9c0,0-0.2-0.7-0.8-1.4c2.1-0.5,3.7-1.3,5.1-2.5
	c-0.9-0.8-1.5-1.7-2.2-2.6c-0.4,0.6-0.8,1.5-1.5,2.3c0,0-0.5-0.8-1.1-1.1c0.1-0.2,0.2-0.2,0.2-0.3c-0.6,0-1.6,0-2.2,0
	c0.6,1.7,1.5,2.6,2.1,3.4c-0.5,0.5-0.8,1.3-0.8,1.3c-0.4-0.7-1-1.5-1.3-2.1c0.1,3.1,0.2,7,0.3,10.3h-1.6c0.1-3,0.1-6.7-0.1-9.9
	c-0.6,2.1-1.4,3.7-2.4,5.4c0,0-0.3-0.9-0.8-1.6c1.3-1.7,2.2-3.9,3.1-6.6c-1,0-2,0.1-2.9,0.1v-1.5c1,0.1,1.9,0.1,3.1,0.1
	c-0.2-1.8-0.2-3-0.3-3.2c-0.1-0.5-0.3-0.7,0.1-0.7c0.5,0,1,0.1,1.7,0.2c0.2,0.1,0.2,0.2,0,0.6c-0.2,0.2-0.2,0.6-0.2,0.9v2.1
	c0.7,0,1.6-0.1,2.3-0.1v1.3c1-1.1,1.9-3.3,2.3-4.6c0.1-0.4,0-0.5,0.2-0.5c0.4,0.1,0.9,0.1,1.4,0.2c0.3,0,0.3,0.2,0,0.4
	c-0.4,0.5-0.4,0.8-0.6,1.1l4.1-0.1c0.2,0,0.4-0.1,0.6-0.2c0.1,0,0.1,0,0.3,0c0.3,0.2,0.8,0.5,1.1,0.8s-0.3,0.5-0.4,0.8
	c-0.6,1.5-1.4,2.9-2.7,3.9c1.5,1.1,3.1,1.7,5,2.1C219.8,119.6,219.6,120.4,219.6,120.4 M216.9,127.6v-1.2H212
	c0.1,0.4,0.1,0.9,0.1,1.3h-1.7c0.1-2.5,0-7.4,0-7.4l7.9-0.1c0,0,0,4.7,0.2,7.4C218.5,127.6,216.9,127.6,216.9,127.6z M211.9,112.8
	c0.6,1.1,1.4,2.3,2.4,3.1c1-0.8,1.7-2,2.2-3.2L211.9,112.8z M211.9,121.6c0,0,0.1,1.7,0.1,3.4l4.9-0.2c0-1.7,0-3.4,0-3.4
	L211.9,121.6z"/>
<path class="st0" d="M215.1,134.7c0,0.7,0,1.6,0.2,2.4h-1.7c0.1-0.7,0.1-1.5,0.1-2.4c-1.5,0-3,0.1-4.3,0.2l-0.1-1.5
	c1.4,0.1,2.8,0.2,4.2,0.1c0-0.6,0-1.2-0.1-1.5c-0.1-0.4-0.3-0.6,0.1-0.6c0.5,0.1,1,0.1,1.5,0.1c0.4,0.1,0.2,0.3,0,0.6
	c-0.1,0.4-0.1,0.8-0.1,1.3c1.5,0,3.2-0.1,4.7-0.2v1.5L215.1,134.7L215.1,134.7z M204.4,137c-0.1,1-0.3,2.5-0.7,4l-1.2-0.6
	c0.5-1.5,0.8-3.3,0.6-4.3c0-0.4,0-0.5,0.2-0.5c0.4,0,0.8,0.2,1.1,0.2c0.4,0.1,0.2,0.3,0.1,0.5C204.4,136.5,204.4,136.7,204.4,137
	 M218,139c0.1,0.7,0.1,1.3,0.1,1.9l-1.5,0.1c0-0.6,0-1.2,0-2c-1.5,0-2.9,0.1-4.4,0.2v1.9h-1.5c0.1-0.5,0.1-1.2,0.1-1.9
	c-0.8,0.1-1.6,0.1-2.3,0.1v-1.5c0.7,0,1.5,0,2.3,0c-0.1-0.7-0.1-1.3-0.1-1.7c-0.2-0.5-0.3-0.6,0-0.6c0.5,0.1,1.1,0.1,1.5,0.2
	c0.3,0.1,0.2,0.2,0,0.5c-0.2,0.5,0,0.8,0,1.7c1.3,0,2.9,0,4.3-0.1c0-0.7,0-1.4-0.1-1.7c-0.1-0.5-0.3-0.7,0.1-0.7
	c0.4,0,0.9,0.1,1.4,0.2c0.3,0,0.3,0.3,0,0.5c-0.2,0.5-0.1,0.7-0.2,1.6c1,0,1.9,0,2.9-0.1v1.5C219.8,139,218.9,139,218,139
	 M209.5,135.7c-0.3,0.2-0.4,0.2-0.5,0.4c-0.6,1-1.3,1.8-2.3,2.9v2.8c0.7,1.6,1.5,2.7,2.6,4c-0.6,0.5-0.9,1.2-0.9,1.2
	c-0.8-1.1-1.5-2.1-2-3.3c-0.5,2.2-1.4,4.1-2.8,5.8c0,0-0.3-0.7-1-1.3c1.9-2,2.7-4.7,2.8-7.3c0.2-2.3,0.1-8-0.1-8.6
	c-0.2-0.3-0.3-0.6,0-0.5c0.6,0,1.1,0,1.6,0.2c0.3,0.1,0.2,0.3,0.1,0.6c-0.2,0.3-0.2,0.6-0.2,0.7v4c0.8-0.9,1.2-1.8,1.4-2.3
	c0.1-0.2,0-0.3,0.3-0.3c0.4,0.1,0.7,0.4,1.1,0.7C209.8,135.4,209.7,135.5,209.5,135.7 M219.1,148.7c-0.8,0-1.6,0.1-2.3,0
	c-1.2,0-1.4-0.8-1.5-1.7v-4.4c-0.8,0-1.6,0-2.4,0.1c-0.1,3.6-1.4,5.2-5.1,6.8c0,0-0.2-0.7-0.8-1.5c3-0.9,4.3-2.3,4.5-5.3
	c-0.9,0.1-1.8,0.1-2.6,0.2l-0.1-1.5c3.4,0.1,7.7,0.1,11.3-0.2l0.1,1.4h-3.5v4.1c0.1,0.3,0.1,0.5,0.5,0.5c0.4,0.1,0.8,0.1,1.1,0
	c0.6-0.1,0.8-0.6,1-3.5c0.7,0.5,1.3,0.8,1.3,0.8C220.6,147.9,220.2,148.6,219.1,148.7"/>
<path class="st0" d="M218.9,158.4c0,3.1,0.2,7.4,0.2,10c0.1,2.2-0.8,2.7-3.8,2.6c0,0-0.2-0.8-0.6-1.5c2.6,0.2,2.8,0,2.8-1.1
	c0-2.5-0.1-6.8-0.2-10c-1.7,0-3.4,0.1-5.2,0.1V157c1.8,0.1,3.5,0.1,5.2,0c0-1.8-0.1-2.9-0.2-3.2c-0.1-0.5-0.3-0.6,0.1-0.6
	c0.5,0.1,1.2,0.1,1.8,0.2c0.2,0.1,0.2,0.3,0,0.6s-0.2,0.6-0.2,0.9v2.2c0.7-0.1,1.5-0.1,2.2-0.2v1.6h-2.1V158.4z M215,164.8
	c-0.4-1.7-1-3.3-1.8-4.8l1.3-0.5c0.8,1.5,1.4,3,1.9,4.9L215,164.8z M209.2,155.5l0.1,2.2h2.5c0,0,0.1,8.6,0.3,13.2l-1.4,0.1v-1
	l-5.4,0.2v1.1h-1.4c0-4.5-0.3-13.6-0.3-13.6h2.5l-0.1-2.1c-1.1,0-2.1,0.1-3.2,0.1v-1.5c3,0.2,6.7,0.2,9.7-0.1l0.1,1.5
	C211.6,155.5,210.4,155.4,209.2,155.5 M208.1,155.5h-1v2.2h1V155.5z M210.4,158.9h-1.1l0.1,3.9c0,0.4,0.1,0.4,0.4,0.4h0.8
	C210.5,160.8,210.4,158.9,210.4,158.9 M209.1,164.3c-0.6,0-0.8-0.4-0.8-1.1l-0.1-4.3h-1v0.7c0,2.6-0.1,4.2-1.3,5.9
	c0,0-0.4-0.5-0.8-1c1-1.3,1-2.6,1-4.9V159h-1.2c0,0,0.1,3.5,0.2,7l5.5-0.1v-1.5C210.1,164.5,209.6,164.5,209.1,164.3 M205.1,167.2
	c0,0.6,0.1,1.1,0.2,1.7l5.4-0.1V167L205.1,167.2z"/>
</svg>
